<mxfile host="app.diagrams.net" modified="2022-04-21T20:10:43.321Z" agent="5.0 (Windows NT 10.0; Win64; x64) AppleWebKit/537.36 (KHTML, like Gecko) Chrome/100.0.4896.127 Safari/537.36" etag="jVi_t89SYyOomzoQOPuy" version="17.4.6" type="github">
  <diagram id="kMmrc_pHaWpTOWDPX01H" name="Page-1">
    <mxGraphModel dx="2031" dy="1077" grid="1" gridSize="10" guides="1" tooltips="1" connect="1" arrows="1" fold="1" page="1" pageScale="1" pageWidth="1169" pageHeight="827" math="0" shadow="0">
      <root>
        <mxCell id="0" />
        <mxCell id="1" parent="0" />
        <mxCell id="ixnwg4KhV-Q-lFp1H0U2-16" value="Toi" style="rounded=0;whiteSpace=wrap;html=1;labelBackgroundColor=none;fontFamily=Verdana;fontSize=21;fillColor=#dae8fc;fontStyle=5;strokeColor=#6c8ebf;" vertex="1" parent="1">
          <mxGeometry width="120" height="40" as="geometry" />
        </mxCell>
        <mxCell id="ixnwg4KhV-Q-lFp1H0U2-1" value="PLAN" style="swimlane;fontStyle=1;childLayout=stackLayout;horizontal=1;startSize=30;horizontalStack=0;resizeParent=1;resizeParentMax=0;resizeLast=0;collapsible=1;marginBottom=0;fontFamily=Comic Sans MS;rounded=1;arcSize=17;labelBackgroundColor=none;fillColor=#EBEBEB;fontSize=16;" vertex="1" parent="1">
          <mxGeometry x="40" y="80" width="170" height="120" as="geometry">
            <mxRectangle x="150" y="190" width="50" height="30" as="alternateBounds" />
          </mxGeometry>
        </mxCell>
        <mxCell id="ixnwg4KhV-Q-lFp1H0U2-2" value="Item 1" style="text;align=left;verticalAlign=middle;spacingLeft=4;spacingRight=4;overflow=hidden;points=[[0,0.5],[1,0.5]];portConstraint=eastwest;rotatable=0;fontFamily=Courier New;" vertex="1" parent="ixnwg4KhV-Q-lFp1H0U2-1">
          <mxGeometry y="30" width="170" height="30" as="geometry" />
        </mxCell>
        <mxCell id="ixnwg4KhV-Q-lFp1H0U2-3" value="Item 2" style="text;strokeColor=none;fillColor=none;align=left;verticalAlign=middle;spacingLeft=4;spacingRight=4;overflow=hidden;points=[[0,0.5],[1,0.5]];portConstraint=eastwest;rotatable=0;fontFamily=Courier New;" vertex="1" parent="ixnwg4KhV-Q-lFp1H0U2-1">
          <mxGeometry y="60" width="170" height="30" as="geometry" />
        </mxCell>
        <mxCell id="ixnwg4KhV-Q-lFp1H0U2-4" value="Item 3" style="text;strokeColor=none;fillColor=none;align=left;verticalAlign=middle;spacingLeft=4;spacingRight=4;overflow=hidden;points=[[0,0.5],[1,0.5]];portConstraint=eastwest;rotatable=0;fontFamily=Courier New;" vertex="1" parent="ixnwg4KhV-Q-lFp1H0U2-1">
          <mxGeometry y="90" width="170" height="30" as="geometry" />
        </mxCell>
        <mxCell id="ixnwg4KhV-Q-lFp1H0U2-8" value="AGILITY" style="swimlane;fontStyle=1;childLayout=stackLayout;horizontal=1;startSize=30;horizontalStack=0;resizeParent=1;resizeParentMax=0;resizeLast=0;collapsible=1;marginBottom=0;fontFamily=Comic Sans MS;rounded=1;arcSize=17;labelBackgroundColor=none;fillColor=#EBEBEB;fontSize=16;" vertex="1" parent="1">
          <mxGeometry x="244" y="80" width="170" height="120" as="geometry">
            <mxRectangle x="150" y="190" width="50" height="30" as="alternateBounds" />
          </mxGeometry>
        </mxCell>
        <mxCell id="ixnwg4KhV-Q-lFp1H0U2-9" value="Item 1" style="text;align=left;verticalAlign=middle;spacingLeft=4;spacingRight=4;overflow=hidden;points=[[0,0.5],[1,0.5]];portConstraint=eastwest;rotatable=0;fontFamily=Courier New;" vertex="1" parent="ixnwg4KhV-Q-lFp1H0U2-8">
          <mxGeometry y="30" width="170" height="30" as="geometry" />
        </mxCell>
        <mxCell id="ixnwg4KhV-Q-lFp1H0U2-10" value="Item 2" style="text;strokeColor=none;fillColor=none;align=left;verticalAlign=middle;spacingLeft=4;spacingRight=4;overflow=hidden;points=[[0,0.5],[1,0.5]];portConstraint=eastwest;rotatable=0;fontFamily=Courier New;" vertex="1" parent="ixnwg4KhV-Q-lFp1H0U2-8">
          <mxGeometry y="60" width="170" height="30" as="geometry" />
        </mxCell>
        <mxCell id="ixnwg4KhV-Q-lFp1H0U2-11" value="Item 3" style="text;strokeColor=none;fillColor=none;align=left;verticalAlign=middle;spacingLeft=4;spacingRight=4;overflow=hidden;points=[[0,0.5],[1,0.5]];portConstraint=eastwest;rotatable=0;fontFamily=Courier New;" vertex="1" parent="ixnwg4KhV-Q-lFp1H0U2-8">
          <mxGeometry y="90" width="170" height="30" as="geometry" />
        </mxCell>
        <mxCell id="ixnwg4KhV-Q-lFp1H0U2-12" value="CODE" style="swimlane;fontStyle=1;childLayout=stackLayout;horizontal=1;startSize=30;horizontalStack=0;resizeParent=1;resizeParentMax=0;resizeLast=0;collapsible=1;marginBottom=0;fontFamily=Comic Sans MS;rounded=1;arcSize=17;labelBackgroundColor=none;fillColor=#EBEBEB;fontSize=16;" vertex="1" parent="1">
          <mxGeometry x="450" y="80" width="170" height="120" as="geometry">
            <mxRectangle x="150" y="190" width="50" height="30" as="alternateBounds" />
          </mxGeometry>
        </mxCell>
        <mxCell id="ixnwg4KhV-Q-lFp1H0U2-13" value="Item 1" style="text;align=left;verticalAlign=middle;spacingLeft=4;spacingRight=4;overflow=hidden;points=[[0,0.5],[1,0.5]];portConstraint=eastwest;rotatable=0;fontFamily=Courier New;" vertex="1" parent="ixnwg4KhV-Q-lFp1H0U2-12">
          <mxGeometry y="30" width="170" height="30" as="geometry" />
        </mxCell>
        <mxCell id="ixnwg4KhV-Q-lFp1H0U2-14" value="Item 2" style="text;strokeColor=none;fillColor=none;align=left;verticalAlign=middle;spacingLeft=4;spacingRight=4;overflow=hidden;points=[[0,0.5],[1,0.5]];portConstraint=eastwest;rotatable=0;fontFamily=Courier New;" vertex="1" parent="ixnwg4KhV-Q-lFp1H0U2-12">
          <mxGeometry y="60" width="170" height="30" as="geometry" />
        </mxCell>
        <mxCell id="ixnwg4KhV-Q-lFp1H0U2-15" value="Item 3" style="text;strokeColor=none;fillColor=none;align=left;verticalAlign=middle;spacingLeft=4;spacingRight=4;overflow=hidden;points=[[0,0.5],[1,0.5]];portConstraint=eastwest;rotatable=0;fontFamily=Courier New;" vertex="1" parent="ixnwg4KhV-Q-lFp1H0U2-12">
          <mxGeometry y="90" width="170" height="30" as="geometry" />
        </mxCell>
        <mxCell id="ixnwg4KhV-Q-lFp1H0U2-27" value="" style="html=1;shadow=0;dashed=0;align=center;verticalAlign=middle;shape=mxgraph.arrows2.arrow;dy=0;dx=30;notch=10;rounded=1;labelBackgroundColor=#FF0000;sketch=0;fontFamily=Verdana;fontSize=21;fontColor=#FF0000;fillColor=#FF0000;" vertex="1" parent="1">
          <mxGeometry x="213" y="130" width="28" height="30" as="geometry" />
        </mxCell>
        <mxCell id="ixnwg4KhV-Q-lFp1H0U2-29" value="" style="html=1;shadow=0;dashed=0;align=center;verticalAlign=middle;shape=mxgraph.arrows2.arrow;dy=0;dx=30;notch=10;rounded=1;labelBackgroundColor=#FF0000;sketch=0;fontFamily=Verdana;fontSize=21;fontColor=#FF0000;fillColor=#FF0000;" vertex="1" parent="1">
          <mxGeometry x="419" y="130" width="28" height="30" as="geometry" />
        </mxCell>
        <mxCell id="ixnwg4KhV-Q-lFp1H0U2-30" value="RELEASE" style="swimlane;fontStyle=1;childLayout=stackLayout;horizontal=1;startSize=30;horizontalStack=0;resizeParent=1;resizeParentMax=0;resizeLast=0;collapsible=1;marginBottom=0;fontFamily=Comic Sans MS;rounded=1;arcSize=17;labelBackgroundColor=none;fillColor=#EBEBEB;fontSize=16;" vertex="1" parent="1">
          <mxGeometry x="39" y="240" width="170" height="120" as="geometry">
            <mxRectangle x="150" y="190" width="50" height="30" as="alternateBounds" />
          </mxGeometry>
        </mxCell>
        <mxCell id="ixnwg4KhV-Q-lFp1H0U2-31" value="Item 1" style="text;align=left;verticalAlign=middle;spacingLeft=4;spacingRight=4;overflow=hidden;points=[[0,0.5],[1,0.5]];portConstraint=eastwest;rotatable=0;fontFamily=Courier New;" vertex="1" parent="ixnwg4KhV-Q-lFp1H0U2-30">
          <mxGeometry y="30" width="170" height="30" as="geometry" />
        </mxCell>
        <mxCell id="ixnwg4KhV-Q-lFp1H0U2-32" value="Item 2" style="text;strokeColor=none;fillColor=none;align=left;verticalAlign=middle;spacingLeft=4;spacingRight=4;overflow=hidden;points=[[0,0.5],[1,0.5]];portConstraint=eastwest;rotatable=0;fontFamily=Courier New;" vertex="1" parent="ixnwg4KhV-Q-lFp1H0U2-30">
          <mxGeometry y="60" width="170" height="30" as="geometry" />
        </mxCell>
        <mxCell id="ixnwg4KhV-Q-lFp1H0U2-33" value="Item 3" style="text;strokeColor=none;fillColor=none;align=left;verticalAlign=middle;spacingLeft=4;spacingRight=4;overflow=hidden;points=[[0,0.5],[1,0.5]];portConstraint=eastwest;rotatable=0;fontFamily=Courier New;" vertex="1" parent="ixnwg4KhV-Q-lFp1H0U2-30">
          <mxGeometry y="90" width="170" height="30" as="geometry" />
        </mxCell>
        <mxCell id="ixnwg4KhV-Q-lFp1H0U2-34" value="TEST" style="swimlane;fontStyle=1;childLayout=stackLayout;horizontal=1;startSize=30;horizontalStack=0;resizeParent=1;resizeParentMax=0;resizeLast=0;collapsible=1;marginBottom=0;fontFamily=Comic Sans MS;rounded=1;arcSize=17;labelBackgroundColor=none;fillColor=#EBEBEB;fontSize=16;" vertex="1" parent="1">
          <mxGeometry x="243" y="240" width="170" height="120" as="geometry">
            <mxRectangle x="150" y="190" width="50" height="30" as="alternateBounds" />
          </mxGeometry>
        </mxCell>
        <mxCell id="ixnwg4KhV-Q-lFp1H0U2-35" value="Item 1" style="text;align=left;verticalAlign=middle;spacingLeft=4;spacingRight=4;overflow=hidden;points=[[0,0.5],[1,0.5]];portConstraint=eastwest;rotatable=0;fontFamily=Courier New;" vertex="1" parent="ixnwg4KhV-Q-lFp1H0U2-34">
          <mxGeometry y="30" width="170" height="30" as="geometry" />
        </mxCell>
        <mxCell id="ixnwg4KhV-Q-lFp1H0U2-36" value="Item 2" style="text;strokeColor=none;fillColor=none;align=left;verticalAlign=middle;spacingLeft=4;spacingRight=4;overflow=hidden;points=[[0,0.5],[1,0.5]];portConstraint=eastwest;rotatable=0;fontFamily=Courier New;" vertex="1" parent="ixnwg4KhV-Q-lFp1H0U2-34">
          <mxGeometry y="60" width="170" height="30" as="geometry" />
        </mxCell>
        <mxCell id="ixnwg4KhV-Q-lFp1H0U2-37" value="Item 3" style="text;strokeColor=none;fillColor=none;align=left;verticalAlign=middle;spacingLeft=4;spacingRight=4;overflow=hidden;points=[[0,0.5],[1,0.5]];portConstraint=eastwest;rotatable=0;fontFamily=Courier New;" vertex="1" parent="ixnwg4KhV-Q-lFp1H0U2-34">
          <mxGeometry y="90" width="170" height="30" as="geometry" />
        </mxCell>
        <mxCell id="ixnwg4KhV-Q-lFp1H0U2-38" value="BUILD" style="swimlane;fontStyle=1;childLayout=stackLayout;horizontal=1;startSize=30;horizontalStack=0;resizeParent=1;resizeParentMax=0;resizeLast=0;collapsible=1;marginBottom=0;fontFamily=Comic Sans MS;rounded=1;arcSize=17;labelBackgroundColor=none;fillColor=#EBEBEB;fontSize=16;" vertex="1" parent="1">
          <mxGeometry x="449" y="240" width="170" height="120" as="geometry">
            <mxRectangle x="150" y="190" width="50" height="30" as="alternateBounds" />
          </mxGeometry>
        </mxCell>
        <mxCell id="ixnwg4KhV-Q-lFp1H0U2-39" value="Item 1" style="text;align=left;verticalAlign=middle;spacingLeft=4;spacingRight=4;overflow=hidden;points=[[0,0.5],[1,0.5]];portConstraint=eastwest;rotatable=0;fontFamily=Courier New;" vertex="1" parent="ixnwg4KhV-Q-lFp1H0U2-38">
          <mxGeometry y="30" width="170" height="30" as="geometry" />
        </mxCell>
        <mxCell id="ixnwg4KhV-Q-lFp1H0U2-40" value="Item 2" style="text;strokeColor=none;fillColor=none;align=left;verticalAlign=middle;spacingLeft=4;spacingRight=4;overflow=hidden;points=[[0,0.5],[1,0.5]];portConstraint=eastwest;rotatable=0;fontFamily=Courier New;" vertex="1" parent="ixnwg4KhV-Q-lFp1H0U2-38">
          <mxGeometry y="60" width="170" height="30" as="geometry" />
        </mxCell>
        <mxCell id="ixnwg4KhV-Q-lFp1H0U2-41" value="Item 3" style="text;strokeColor=none;fillColor=none;align=left;verticalAlign=middle;spacingLeft=4;spacingRight=4;overflow=hidden;points=[[0,0.5],[1,0.5]];portConstraint=eastwest;rotatable=0;fontFamily=Courier New;" vertex="1" parent="ixnwg4KhV-Q-lFp1H0U2-38">
          <mxGeometry y="90" width="170" height="30" as="geometry" />
        </mxCell>
        <mxCell id="ixnwg4KhV-Q-lFp1H0U2-42" value="DEPLOY" style="swimlane;fontStyle=1;childLayout=stackLayout;horizontal=1;startSize=30;horizontalStack=0;resizeParent=1;resizeParentMax=0;resizeLast=0;collapsible=1;marginBottom=0;fontFamily=Comic Sans MS;rounded=1;arcSize=17;labelBackgroundColor=none;fillColor=#EBEBEB;fontSize=16;" vertex="1" parent="1">
          <mxGeometry x="40" y="400" width="170" height="120" as="geometry">
            <mxRectangle x="150" y="190" width="50" height="30" as="alternateBounds" />
          </mxGeometry>
        </mxCell>
        <mxCell id="ixnwg4KhV-Q-lFp1H0U2-43" value="Item 1" style="text;align=left;verticalAlign=middle;spacingLeft=4;spacingRight=4;overflow=hidden;points=[[0,0.5],[1,0.5]];portConstraint=eastwest;rotatable=0;fontFamily=Courier New;" vertex="1" parent="ixnwg4KhV-Q-lFp1H0U2-42">
          <mxGeometry y="30" width="170" height="30" as="geometry" />
        </mxCell>
        <mxCell id="ixnwg4KhV-Q-lFp1H0U2-44" value="Item 2" style="text;strokeColor=none;fillColor=none;align=left;verticalAlign=middle;spacingLeft=4;spacingRight=4;overflow=hidden;points=[[0,0.5],[1,0.5]];portConstraint=eastwest;rotatable=0;fontFamily=Courier New;" vertex="1" parent="ixnwg4KhV-Q-lFp1H0U2-42">
          <mxGeometry y="60" width="170" height="30" as="geometry" />
        </mxCell>
        <mxCell id="ixnwg4KhV-Q-lFp1H0U2-45" value="Item 3" style="text;strokeColor=none;fillColor=none;align=left;verticalAlign=middle;spacingLeft=4;spacingRight=4;overflow=hidden;points=[[0,0.5],[1,0.5]];portConstraint=eastwest;rotatable=0;fontFamily=Courier New;" vertex="1" parent="ixnwg4KhV-Q-lFp1H0U2-42">
          <mxGeometry y="90" width="170" height="30" as="geometry" />
        </mxCell>
        <mxCell id="ixnwg4KhV-Q-lFp1H0U2-46" value="OPERATE" style="swimlane;fontStyle=1;childLayout=stackLayout;horizontal=1;startSize=30;horizontalStack=0;resizeParent=1;resizeParentMax=0;resizeLast=0;collapsible=1;marginBottom=0;fontFamily=Comic Sans MS;rounded=1;arcSize=17;labelBackgroundColor=none;fillColor=#EBEBEB;fontSize=16;" vertex="1" parent="1">
          <mxGeometry x="244" y="400" width="170" height="120" as="geometry">
            <mxRectangle x="150" y="190" width="50" height="30" as="alternateBounds" />
          </mxGeometry>
        </mxCell>
        <mxCell id="ixnwg4KhV-Q-lFp1H0U2-47" value="Item 1" style="text;align=left;verticalAlign=middle;spacingLeft=4;spacingRight=4;overflow=hidden;points=[[0,0.5],[1,0.5]];portConstraint=eastwest;rotatable=0;fontFamily=Courier New;" vertex="1" parent="ixnwg4KhV-Q-lFp1H0U2-46">
          <mxGeometry y="30" width="170" height="30" as="geometry" />
        </mxCell>
        <mxCell id="ixnwg4KhV-Q-lFp1H0U2-48" value="Item 2" style="text;strokeColor=none;fillColor=none;align=left;verticalAlign=middle;spacingLeft=4;spacingRight=4;overflow=hidden;points=[[0,0.5],[1,0.5]];portConstraint=eastwest;rotatable=0;fontFamily=Courier New;" vertex="1" parent="ixnwg4KhV-Q-lFp1H0U2-46">
          <mxGeometry y="60" width="170" height="30" as="geometry" />
        </mxCell>
        <mxCell id="ixnwg4KhV-Q-lFp1H0U2-49" value="Item 3" style="text;strokeColor=none;fillColor=none;align=left;verticalAlign=middle;spacingLeft=4;spacingRight=4;overflow=hidden;points=[[0,0.5],[1,0.5]];portConstraint=eastwest;rotatable=0;fontFamily=Courier New;" vertex="1" parent="ixnwg4KhV-Q-lFp1H0U2-46">
          <mxGeometry y="90" width="170" height="30" as="geometry" />
        </mxCell>
        <mxCell id="ixnwg4KhV-Q-lFp1H0U2-50" value="MEASURE" style="swimlane;fontStyle=1;childLayout=stackLayout;horizontal=1;startSize=30;horizontalStack=0;resizeParent=1;resizeParentMax=0;resizeLast=0;collapsible=1;marginBottom=0;fontFamily=Comic Sans MS;rounded=1;arcSize=17;labelBackgroundColor=none;fillColor=#EBEBEB;fontSize=16;" vertex="1" parent="1">
          <mxGeometry x="450" y="400" width="170" height="120" as="geometry">
            <mxRectangle x="150" y="190" width="50" height="30" as="alternateBounds" />
          </mxGeometry>
        </mxCell>
        <mxCell id="ixnwg4KhV-Q-lFp1H0U2-51" value="Item 1" style="text;align=left;verticalAlign=middle;spacingLeft=4;spacingRight=4;overflow=hidden;points=[[0,0.5],[1,0.5]];portConstraint=eastwest;rotatable=0;fontFamily=Courier New;" vertex="1" parent="ixnwg4KhV-Q-lFp1H0U2-50">
          <mxGeometry y="30" width="170" height="30" as="geometry" />
        </mxCell>
        <mxCell id="ixnwg4KhV-Q-lFp1H0U2-52" value="Item 2" style="text;strokeColor=none;fillColor=none;align=left;verticalAlign=middle;spacingLeft=4;spacingRight=4;overflow=hidden;points=[[0,0.5],[1,0.5]];portConstraint=eastwest;rotatable=0;fontFamily=Courier New;" vertex="1" parent="ixnwg4KhV-Q-lFp1H0U2-50">
          <mxGeometry y="60" width="170" height="30" as="geometry" />
        </mxCell>
        <mxCell id="ixnwg4KhV-Q-lFp1H0U2-53" value="Item 3" style="text;strokeColor=none;fillColor=none;align=left;verticalAlign=middle;spacingLeft=4;spacingRight=4;overflow=hidden;points=[[0,0.5],[1,0.5]];portConstraint=eastwest;rotatable=0;fontFamily=Courier New;" vertex="1" parent="ixnwg4KhV-Q-lFp1H0U2-50">
          <mxGeometry y="90" width="170" height="30" as="geometry" />
        </mxCell>
        <mxCell id="ixnwg4KhV-Q-lFp1H0U2-54" value="" style="html=1;shadow=0;dashed=0;align=center;verticalAlign=middle;shape=mxgraph.arrows2.arrow;dy=0;dx=30;notch=10;rounded=1;labelBackgroundColor=#FF0000;sketch=0;fontFamily=Verdana;fontSize=21;fontColor=#FF0000;fillColor=#FF0000;" vertex="1" parent="1">
          <mxGeometry x="213" y="450" width="28" height="30" as="geometry" />
        </mxCell>
        <mxCell id="ixnwg4KhV-Q-lFp1H0U2-55" value="" style="html=1;shadow=0;dashed=0;align=center;verticalAlign=middle;shape=mxgraph.arrows2.arrow;dy=0;dx=30;notch=10;rounded=1;labelBackgroundColor=#FF0000;sketch=0;fontFamily=Verdana;fontSize=21;fontColor=#FF0000;fillColor=#FF0000;" vertex="1" parent="1">
          <mxGeometry x="419" y="450" width="28" height="30" as="geometry" />
        </mxCell>
        <mxCell id="ixnwg4KhV-Q-lFp1H0U2-56" value="" style="html=1;shadow=0;dashed=0;align=center;verticalAlign=middle;shape=mxgraph.arrows2.arrow;dy=0;dx=30;notch=10;rounded=1;labelBackgroundColor=#FF0000;sketch=0;fontFamily=Verdana;fontSize=21;fontColor=#FF0000;fillColor=#FF0000;flipH=1;" vertex="1" parent="1">
          <mxGeometry x="417" y="290" width="28" height="30" as="geometry" />
        </mxCell>
        <mxCell id="ixnwg4KhV-Q-lFp1H0U2-57" value="" style="html=1;shadow=0;dashed=0;align=center;verticalAlign=middle;shape=mxgraph.arrows2.arrow;dy=0;dx=30;notch=10;rounded=1;labelBackgroundColor=#FF0000;sketch=0;fontFamily=Verdana;fontSize=21;fontColor=#FF0000;fillColor=#FF0000;flipH=1;" vertex="1" parent="1">
          <mxGeometry x="212" y="290" width="28" height="30" as="geometry" />
        </mxCell>
        <mxCell id="ixnwg4KhV-Q-lFp1H0U2-58" value="" style="html=1;shadow=0;dashed=0;align=center;verticalAlign=middle;shape=mxgraph.arrows2.arrow;dy=0;dx=30;notch=10;rounded=1;labelBackgroundColor=#FF0000;sketch=0;fontFamily=Verdana;fontSize=21;fontColor=#FF0000;fillColor=#FF0000;direction=south;" vertex="1" parent="1">
          <mxGeometry x="525" y="207" width="30" height="28" as="geometry" />
        </mxCell>
        <mxCell id="ixnwg4KhV-Q-lFp1H0U2-59" value="" style="html=1;shadow=0;dashed=0;align=center;verticalAlign=middle;shape=mxgraph.arrows2.arrow;dy=0;dx=30;notch=10;rounded=1;labelBackgroundColor=#FF0000;sketch=0;fontFamily=Verdana;fontSize=21;fontColor=#FF0000;fillColor=#FF0000;direction=south;" vertex="1" parent="1">
          <mxGeometry x="110" y="366" width="30" height="28" as="geometry" />
        </mxCell>
      </root>
    </mxGraphModel>
  </diagram>
</mxfile>
